<svg xmlns="http://www.w3.org/2000/svg" xmlns:xlink="http://www.w3.org/1999/xlink" version="1.1" x="0px" y="0px" viewBox="0 0 100 125" style="enable-background:new 0 0 100 100;" xml:space="preserve"><g><path d="M76.0919495,26.1332073c0-7.9257202-6.4249268-14.3505869-14.3505859-14.3505869   c-4.8536377,0-9.1436768,2.4104004-11.741394,6.0992441c-2.597168-3.6888437-6.887207-6.0992441-11.741333-6.0992441   c-7.9251709,0-14.3505859,6.4248667-14.3505859,14.3505869c0,19.5689068,26.0919189,31.6945171,26.0919189,31.6945171   S76.0919495,45.7021141,76.0919495,26.1332073z"/><path d="M90.417511,37.1340599c-0.0079956-1.2791138-1.0557251-2.322876-2.3338623-2.3288574c-0.0039673,0-0.007019,0-0.0100098,0   c-1.1539307,0-2.1505737,0.8583984-2.3198242,2.0012817l-1.4625854,9.8624878   c1.2996216,1.1351318,1.8429565,2.9707642,1.2542114,4.640564c-1.0386963,2.9439087-3.0119629,7.3061523-6.5178223,11.369873   c-0.3695679,0.4287109-1.0166626,0.475769-1.4463501,0.1062012c-0.4287109-0.3696289-0.4768066-1.0177002-0.1062012-1.4464111   c3.2964478-3.8213501,5.1555176-7.9341431,6.1351929-10.711792c0.3665771-1.0386963-0.1071777-2.2106323-1.1018677-2.7265015   l-0.3555908-0.1843262c-0.6610718-0.3415527-1.4143066-0.4066772-2.1245117-0.1832886   c-0.7091675,0.2254028-1.288147,0.7131958-1.6306763,1.373291l-1.3572998,2.6173096   c-1.5655518,3.0160522-3.9475098,5.5071411-6.8903809,7.2029419c-3.5609131,2.0534058-6.1392212,5.3629189-7.2610474,9.3175087   l-1.4494629,5.1099243l14.3498535,7.4428711c0.0927734,0.0481567,0.1704102,0.1152344,0.2593994,0.168396l12.118103-16.2911377   c1.5535889-2.0884438,2.3989868-4.6707802,2.381958-7.2720375L90.417511,37.1340599z"/><path d="M74.8456726,82.4181824l-14.8085327-7.6807861c-0.4517212-0.2333374-0.9345703-0.3445435-1.4103394-0.3445435   c-1.1118164,0-2.1866455,0.6040039-2.7325439,1.6567383c-0.7792969,1.5045166-0.1903076,3.3626099,1.3131714,4.1428833   l14.8075562,7.6807251c1.5095215,0.7792969,3.3635864,0.1903076,4.1428833-1.3131714   c0.3776245-0.729187,0.4497681-1.5606079,0.201355-2.3428955C76.1117859,83.434845,75.5738831,82.7958069,74.8456726,82.4181824z"/><path d="M24.2117004,80.5971375l14.3491211-7.4424438l-1.4487305-5.1103516   c-1.1218262-3.9545898-3.7001343-7.2630653-7.2610474-9.3164711c-2.9438477-1.6978149-5.3267822-4.1889648-6.8903809-7.2049561   l-1.3572998-2.6153564c-0.3425293-0.6610718-0.9224854-1.1488647-1.6316528-1.3742676   c-0.7081909-0.2213745-1.4624634-0.1592407-2.1235352,0.1832886l-0.3566284,0.1843262   c-0.9946289,0.5158691-1.4683838,1.6878052-1.1008301,2.7265015c0.9776611,2.7766113,2.836731,6.8884277,6.1351929,10.711792   c0.3706055,0.4287109,0.3225708,1.0767822-0.1061401,1.4464111c-0.4287109,0.3695679-1.0767822,0.3225098-1.4464111-0.1062012   c-3.5088501-4.0657349-5.4810791-8.427002-6.5178223-11.369873c-0.5896606-1.670166-0.0461426-3.5062866,1.2540894-4.6413574   l-1.4634399-9.8626709c-0.1692505-1.1419067-1.1659546-2.0003052-2.3198242-2.0003052c-0.0030518,0-0.0060425,0-0.0100098,0   c-1.2781372,0.0059814-2.3258667,1.0497437-2.3339233,2.3288574L9.4512634,57.2023582   c-0.0170288,2.6022949,0.8293457,5.1845703,2.381897,7.2720375l12.1184082,16.2915039   C24.040863,80.712616,24.1186218,80.6454163,24.2117004,80.5971375z"/><path d="M39.9638367,74.7373962L25.155304,82.4181824c-0.7282104,0.3776245-1.2661133,1.0166626-1.5145264,1.7989502   c-0.2474365,0.7822876-0.1763306,1.6146851,0.201355,2.3428955c0.7802734,1.503479,2.6373291,2.0914917,4.1428223,1.3131714   l14.8085938-7.6807251c0.7282104-0.3776245,1.2661133-1.0177002,1.5134888-1.7999878   c0.2484131-0.781311,0.1773071-1.6137085-0.2012939-2.3419189C43.3254089,74.5440979,41.4673157,73.959137,39.9638367,74.7373962z"/></g><text x="0" y="115" fill="#000000" font-size="5px" font-weight="bold" font-family="'Helvetica Neue', Helvetica, Arial-Unicode, Arial, Sans-serif">Created by Dmitry Vasiliev</text><text x="0" y="120" fill="#000000" font-size="5px" font-weight="bold" font-family="'Helvetica Neue', Helvetica, Arial-Unicode, Arial, Sans-serif">from the Noun Project</text></svg>